<?xml version="1.0" encoding="UTF-8"?>
<svg xmlns="http://www.w3.org/2000/svg" xmlns:xlink="http://www.w3.org/1999/xlink" width="735pt" height="415pt" viewBox="0 0 735 415" version="1.1">
<g id="surface1">
<path style=" stroke:none;fill-rule:evenodd;fill:rgb(54.881287%,78.125%,23.925781%);fill-opacity:1;" d="M 15.058594 321.6875 L 89.691406 321.6875 C 94.597656 321.6875 98.613281 325.703125 98.613281 330.609375 L 98.613281 405.242188 C 98.613281 410.152344 94.597656 414.167969 89.691406 414.167969 L 15.058594 414.167969 C 10.148438 414.167969 6.132813 410.152344 6.132813 405.242188 L 6.132813 330.609375 C 6.132813 325.703125 10.148438 321.6875 15.058594 321.6875 "/>
<path style=" stroke:none;fill-rule:evenodd;fill:rgb(54.881287%,78.125%,23.925781%);fill-opacity:1;" d="M 120.519531 321.6875 L 195.152344 321.6875 C 200.058594 321.6875 204.074219 325.703125 204.074219 330.609375 L 204.074219 405.242188 C 204.074219 410.152344 200.058594 414.167969 195.152344 414.167969 L 120.519531 414.167969 C 115.609375 414.167969 111.59375 410.152344 111.59375 405.242188 L 111.59375 330.609375 C 111.59375 325.703125 115.609375 321.6875 120.519531 321.6875 "/>
<path style=" stroke:none;fill-rule:evenodd;fill:rgb(54.881287%,78.125%,23.925781%);fill-opacity:1;" d="M 15.058594 216.460938 L 89.691406 216.460938 C 94.597656 216.460938 98.613281 220.472656 98.613281 225.382813 L 98.613281 300.015625 C 98.613281 304.925781 94.597656 308.9375 89.691406 308.9375 L 15.058594 308.9375 C 10.148438 308.9375 6.132813 304.925781 6.132813 300.015625 L 6.132813 225.382813 C 6.132813 220.472656 10.148438 216.460938 15.058594 216.460938 "/>
<path style=" stroke:none;fill-rule:evenodd;fill:rgb(54.881287%,78.125%,23.925781%);fill-opacity:1;" d="M 15.058594 111.230469 L 89.691406 111.230469 C 94.597656 111.230469 98.613281 115.246094 98.613281 120.152344 L 98.613281 194.785156 C 98.613281 199.695313 94.597656 203.710938 89.691406 203.710938 L 15.058594 203.710938 C 10.148438 203.710938 6.132813 199.695313 6.132813 194.785156 L 6.132813 120.152344 C 6.132813 115.246094 10.148438 111.230469 15.058594 111.230469 "/>
<path style=" stroke:none;fill-rule:evenodd;fill:rgb(54.881287%,78.125%,23.925781%);fill-opacity:1;" d="M 120.519531 6.003906 L 195.152344 6.003906 C 200.058594 6.003906 204.074219 10.015625 204.074219 14.925781 L 204.074219 89.558594 C 204.074219 94.46875 200.058594 98.480469 195.152344 98.480469 L 120.519531 98.480469 C 115.609375 98.480469 111.59375 94.46875 111.59375 89.558594 L 111.59375 14.925781 C 111.59375 10.015625 115.609375 6.003906 120.519531 6.003906 "/>
<path style=" stroke:none;fill-rule:evenodd;fill:rgb(54.881287%,78.125%,23.925781%);fill-opacity:1;" d="M 120.519531 216.460938 L 195.152344 216.460938 C 200.058594 216.460938 204.074219 220.472656 204.074219 225.382813 L 204.074219 300.015625 C 204.074219 304.925781 200.058594 308.9375 195.152344 308.9375 L 120.519531 308.9375 C 115.609375 308.9375 111.59375 304.925781 111.59375 300.015625 L 111.59375 225.382813 C 111.59375 220.472656 115.609375 216.460938 120.519531 216.460938 "/>
<path style=" stroke:none;fill-rule:evenodd;fill:rgb(54.881287%,78.125%,23.925781%);fill-opacity:1;" d="M 120.519531 111.230469 L 195.152344 111.230469 C 200.058594 111.230469 204.074219 115.246094 204.074219 120.152344 L 204.074219 194.785156 C 204.074219 199.695313 200.058594 203.710938 195.152344 203.710938 L 120.519531 203.710938 C 115.609375 203.710938 111.59375 199.695313 111.59375 194.785156 L 111.59375 120.152344 C 111.59375 115.246094 115.609375 111.230469 120.519531 111.230469 "/>
<path style=" stroke:none;fill-rule:evenodd;fill:rgb(54.881287%,78.125%,23.925781%);fill-opacity:1;" d="M 225.976563 6.003906 L 300.613281 6.003906 C 305.519531 6.003906 309.535156 10.015625 309.535156 14.925781 L 309.535156 89.558594 C 309.535156 94.46875 305.519531 98.480469 300.613281 98.480469 L 225.976563 98.480469 C 221.070313 98.480469 217.054688 94.46875 217.054688 89.558594 L 217.054688 14.925781 C 217.054688 10.015625 221.070313 6.003906 225.976563 6.003906 "/>
<path style=" stroke:none;fill-rule:evenodd;fill:rgb(54.881287%,78.125%,23.925781%);fill-opacity:1;" d="M 225.976563 216.460938 L 300.613281 216.460938 C 305.519531 216.460938 309.535156 220.472656 309.535156 225.382813 L 309.535156 300.015625 C 309.535156 304.925781 305.519531 308.9375 300.613281 308.9375 L 225.976563 308.9375 C 221.070313 308.9375 217.054688 304.925781 217.054688 300.015625 L 217.054688 225.382813 C 217.054688 220.472656 221.070313 216.460938 225.976563 216.460938 "/>
<path style=" stroke:none;fill-rule:evenodd;fill:rgb(92.89856%,10.998535%,14.099121%);fill-opacity:1;" d="M 54.925781 0.554688 C 84.75 0.554688 108.929688 24.734375 108.929688 54.5625 C 108.929688 84.386719 84.75 108.566406 54.925781 108.566406 C 25.097656 108.566406 0.917969 84.386719 0.917969 54.5625 C 0.917969 24.734375 25.097656 0.554688 54.925781 0.554688 "/>
<path style=" stroke:none;fill-rule:nonzero;fill:rgb(13.699341%,12.199402%,12.5%);fill-opacity:1;" d="M 328.363281 300.535156 C 328.363281 300.695313 328.308594 300.84375 328.199219 300.96875 C 328.097656 301.105469 327.921875 301.210938 327.671875 301.285156 C 327.429688 301.371094 327.105469 301.4375 326.695313 301.488281 C 326.289063 301.539063 325.769531 301.5625 325.136719 301.5625 C 324.519531 301.5625 324 301.539063 323.585938 301.488281 C 323.164063 301.4375 322.832031 301.371094 322.589844 301.285156 C 322.347656 301.210938 322.171875 301.105469 322.0625 300.96875 C 321.957031 300.84375 321.90625 300.695313 321.90625 300.535156 L 321.90625 270.652344 C 321.90625 270.496094 321.957031 270.34375 322.0625 270.21875 C 322.171875 270.085938 322.347656 269.976563 322.605469 269.902344 C 322.855469 269.820313 323.183594 269.753906 323.59375 269.703125 C 324 269.652344 324.519531 269.628906 325.136719 269.628906 C 325.769531 269.628906 326.289063 269.652344 326.695313 269.703125 C 327.105469 269.753906 327.429688 269.820313 327.671875 269.902344 C 327.921875 269.976563 328.097656 270.085938 328.199219 270.21875 C 328.308594 270.34375 328.363281 270.496094 328.363281 270.652344 Z M 361.34375 299.160156 C 361.34375 299.535156 361.277344 299.867188 361.152344 300.171875 C 361.019531 300.460938 360.84375 300.703125 360.628906 300.894531 C 360.402344 301.09375 360.144531 301.238281 359.84375 301.328125 C 359.539063 301.410156 359.234375 301.460938 358.925781 301.460938 L 356.1875 301.460938 C 355.621094 301.460938 355.117188 301.402344 354.710938 301.285156 C 354.292969 301.179688 353.910156 300.96875 353.558594 300.671875 C 353.207031 300.371094 352.867188 299.960938 352.539063 299.441406 C 352.214844 298.933594 351.847656 298.265625 351.445313 297.449219 L 343.570313 282.660156 C 343.117188 281.777344 342.652344 280.835938 342.175781 279.816406 C 341.707031 278.796875 341.28125 277.804688 340.90625 276.84375 L 340.855469 276.84375 C 340.925781 278.015625 340.972656 279.183594 341.007813 280.351563 C 341.03125 281.519531 341.050781 282.71875 341.050781 283.953125 L 341.050781 300.511719 C 341.050781 300.671875 341.007813 300.820313 340.914063 300.945313 C 340.832031 301.078125 340.675781 301.1875 340.457031 301.277344 C 340.230469 301.371094 339.9375 301.4375 339.5625 301.488281 C 339.1875 301.539063 338.703125 301.5625 338.121094 301.5625 C 337.554688 301.5625 337.078125 301.539063 336.703125 301.488281 C 336.324219 301.4375 336.035156 301.371094 335.816406 301.277344 C 335.609375 301.1875 335.46875 301.078125 335.382813 300.945313 C 335.300781 300.820313 335.257813 300.671875 335.257813 300.511719 L 335.257813 272.070313 C 335.257813 271.3125 335.484375 270.738281 335.933594 270.351563 C 336.375 269.96875 336.925781 269.777344 337.578125 269.777344 L 341.03125 269.777344 C 341.648438 269.777344 342.167969 269.828125 342.59375 269.9375 C 343.019531 270.042969 343.394531 270.21875 343.726563 270.460938 C 344.0625 270.703125 344.378906 271.046875 344.671875 271.480469 C 344.964844 271.90625 345.265625 272.4375 345.570313 273.074219 L 351.738281 284.640625 C 352.097656 285.339844 352.449219 286.03125 352.800781 286.710938 C 353.148438 287.386719 353.492188 288.0625 353.816406 288.738281 C 354.144531 289.414063 354.460938 290.078125 354.769531 290.730469 C 355.078125 291.382813 355.378906 292.03125 355.671875 292.683594 L 355.695313 292.683594 C 355.644531 291.539063 355.609375 290.355469 355.585938 289.113281 C 355.5625 287.878906 355.554688 286.691406 355.554688 285.574219 L 355.554688 270.726563 C 355.554688 270.570313 355.601563 270.421875 355.695313 270.285156 C 355.796875 270.160156 355.960938 270.042969 356.1875 269.945313 C 356.414063 269.851563 356.714844 269.777344 357.089844 269.742188 C 357.464844 269.703125 357.949219 269.675781 358.53125 269.675781 C 359.089844 269.675781 359.550781 269.703125 359.925781 269.742188 C 360.300781 269.777344 360.59375 269.851563 360.792969 269.945313 C 361.003906 270.042969 361.144531 270.160156 361.21875 270.285156 C 361.300781 270.421875 361.34375 270.570313 361.34375 270.726563 Z M 386.988281 291.925781 C 386.988281 293.585938 386.679688 295.046875 386.0625 296.304688 C 385.445313 297.558594 384.601563 298.609375 383.539063 299.441406 C 382.480469 300.285156 381.246094 300.910156 379.828125 301.339844 C 378.410156 301.761719 376.890625 301.972656 375.28125 301.972656 C 374.1875 301.972656 373.167969 301.886719 372.234375 301.703125 C 371.300781 301.527344 370.472656 301.3125 369.757813 301.0625 C 369.039063 300.804688 368.4375 300.546875 367.953125 300.261719 C 367.476563 299.984375 367.128906 299.742188 366.917969 299.527344 C 366.703125 299.316406 366.550781 299.007813 366.46875 298.617188 C 366.378906 298.214844 366.335938 297.640625 366.335938 296.890625 C 366.335938 296.382813 366.351563 295.964844 366.378906 295.621094 C 366.410156 295.277344 366.46875 294.996094 366.535156 294.785156 C 366.609375 294.578125 366.710938 294.429688 366.835938 294.335938 C 366.953125 294.242188 367.09375 294.203125 367.261719 294.203125 C 367.484375 294.203125 367.8125 294.335938 368.230469 294.601563 C 368.636719 294.871094 369.171875 295.171875 369.832031 295.496094 C 370.480469 295.820313 371.257813 296.121094 372.160156 296.390625 C 373.070313 296.65625 374.113281 296.789063 375.304688 296.789063 C 376.089844 296.789063 376.789063 296.699219 377.40625 296.515625 C 378.023438 296.320313 378.550781 296.054688 378.984375 295.714844 C 379.410156 295.371094 379.746094 294.953125 379.96875 294.445313 C 380.203125 293.9375 380.3125 293.378906 380.3125 292.757813 C 380.3125 292.039063 380.121094 291.425781 379.726563 290.914063 C 379.335938 290.398438 378.828125 289.9375 378.199219 289.546875 C 377.574219 289.144531 376.855469 288.769531 376.066406 288.421875 C 375.265625 288.070313 374.4375 287.695313 373.59375 287.308594 C 372.742188 286.917969 371.917969 286.46875 371.125 285.976563 C 370.324219 285.472656 369.613281 284.882813 368.980469 284.1875 C 368.355469 283.496094 367.84375 282.679688 367.453125 281.734375 C 367.0625 280.785156 366.867188 279.65625 366.867188 278.328125 C 366.867188 276.820313 367.152344 275.484375 367.710938 274.335938 C 368.269531 273.191406 369.03125 272.230469 369.988281 271.480469 C 370.941406 270.71875 372.066406 270.152344 373.359375 269.777344 C 374.652344 269.402344 376.03125 269.21875 377.484375 269.21875 C 378.226563 269.21875 378.976563 269.269531 379.726563 269.386719 C 380.480469 269.503906 381.179688 269.652344 381.832031 269.851563 C 382.480469 270.042969 383.058594 270.269531 383.566406 270.511719 C 384.074219 270.753906 384.410156 270.960938 384.566406 271.121094 C 384.734375 271.285156 384.84375 271.421875 384.902344 271.539063 C 384.960938 271.65625 385.003906 271.804688 385.042969 271.988281 C 385.085938 272.179688 385.117188 272.414063 385.136719 272.699219 C 385.144531 272.980469 385.152344 273.339844 385.152344 273.765625 C 385.152344 274.234375 385.144531 274.632813 385.117188 274.960938 C 385.09375 275.285156 385.050781 275.550781 384.992188 275.769531 C 384.945313 275.976563 384.859375 276.136719 384.753906 276.226563 C 384.644531 276.328125 384.5 276.378906 384.324219 276.378906 C 384.140625 276.378906 383.859375 276.261719 383.464844 276.035156 C 383.074219 275.8125 382.597656 275.558594 382.023438 275.292969 C 381.457031 275.019531 380.796875 274.777344 380.046875 274.558594 C 379.292969 274.335938 378.476563 274.226563 377.574219 274.226563 C 376.875 274.226563 376.265625 274.308594 375.746094 274.484375 C 375.222656 274.652344 374.789063 274.894531 374.4375 275.191406 C 374.085938 275.492188 373.828125 275.851563 373.652344 276.277344 C 373.484375 276.703125 373.394531 277.152344 373.394531 277.621094 C 373.394531 278.320313 373.585938 278.929688 373.96875 279.449219 C 374.355469 279.957031 374.871094 280.417969 375.515625 280.816406 C 376.15625 281.21875 376.882813 281.59375 377.699219 281.9375 C 378.519531 282.285156 379.34375 282.660156 380.195313 283.054688 C 381.039063 283.445313 381.871094 283.890625 382.691406 284.378906 C 383.5 284.882813 384.226563 285.472656 384.859375 286.164063 C 385.496094 286.859375 386.011719 287.675781 386.402344 288.609375 C 386.796875 289.554688 386.988281 290.65625 386.988281 291.925781 Z M 412.464844 272.414063 C 412.464844 272.890625 412.441406 273.289063 412.398438 273.625 C 412.355469 273.957031 412.296875 274.234375 412.214844 274.433594 C 412.132813 274.632813 412.03125 274.792969 411.914063 274.882813 C 411.789063 274.984375 411.65625 275.035156 411.503906 275.035156 L 403.585938 275.035156 L 403.585938 300.535156 C 403.585938 300.695313 403.535156 300.84375 403.429688 300.96875 C 403.320313 301.105469 403.144531 301.210938 402.902344 301.285156 C 402.660156 301.371094 402.324219 301.4375 401.910156 301.488281 C 401.5 301.539063 400.984375 301.5625 400.355469 301.5625 C 399.738281 301.5625 399.222656 301.539063 398.804688 301.488281 C 398.394531 301.4375 398.0625 301.371094 397.820313 301.285156 C 397.570313 301.210938 397.394531 301.105469 397.292969 300.96875 C 397.1875 300.84375 397.136719 300.695313 397.136719 300.535156 L 397.136719 275.035156 L 389.207031 275.035156 C 389.050781 275.035156 388.90625 274.984375 388.800781 274.882813 C 388.683594 274.792969 388.582031 274.632813 388.496094 274.433594 C 388.421875 274.234375 388.355469 273.957031 388.316406 273.625 C 388.28125 273.289063 388.257813 272.890625 388.257813 272.414063 C 388.257813 271.929688 388.28125 271.511719 388.316406 271.171875 C 388.355469 270.828125 388.421875 270.554688 388.496094 270.351563 C 388.582031 270.144531 388.683594 270.003906 388.800781 269.910156 C 388.90625 269.820313 389.050781 269.777344 389.207031 269.777344 L 411.503906 269.777344 C 411.65625 269.777344 411.789063 269.820313 411.914063 269.910156 C 412.03125 270.003906 412.132813 270.144531 412.214844 270.351563 C 412.296875 270.554688 412.355469 270.828125 412.398438 271.171875 C 412.441406 271.511719 412.464844 271.929688 412.464844 272.414063 Z M 422.664063 300.535156 C 422.664063 300.695313 422.605469 300.84375 422.496094 300.96875 C 422.394531 301.105469 422.222656 301.210938 421.96875 301.285156 C 421.730469 301.371094 421.402344 301.4375 420.992188 301.488281 C 420.585938 301.539063 420.066406 301.5625 419.433594 301.5625 C 418.816406 301.5625 418.296875 301.539063 417.882813 301.488281 C 417.464844 301.4375 417.128906 301.371094 416.886719 301.285156 C 416.644531 301.210938 416.472656 301.105469 416.363281 300.96875 C 416.253906 300.84375 416.203125 300.695313 416.203125 300.535156 L 416.203125 270.652344 C 416.203125 270.496094 416.253906 270.34375 416.363281 270.21875 C 416.472656 270.085938 416.644531 269.976563 416.90625 269.902344 C 417.15625 269.820313 417.480469 269.753906 417.890625 269.703125 C 418.296875 269.652344 418.816406 269.628906 419.433594 269.628906 C 420.066406 269.628906 420.585938 269.652344 420.992188 269.703125 C 421.402344 269.753906 421.730469 269.820313 421.96875 269.902344 C 422.222656 269.976563 422.394531 270.085938 422.496094 270.21875 C 422.605469 270.34375 422.664063 270.496094 422.664063 270.652344 Z M 450.609375 272.414063 C 450.609375 272.890625 450.585938 273.289063 450.542969 273.625 C 450.503906 273.957031 450.441406 274.234375 450.359375 274.433594 C 450.277344 274.632813 450.175781 274.792969 450.058594 274.882813 C 449.933594 274.984375 449.800781 275.035156 449.648438 275.035156 L 441.730469 275.035156 L 441.730469 300.535156 C 441.730469 300.695313 441.679688 300.84375 441.570313 300.96875 C 441.464844 301.105469 441.289063 301.210938 441.046875 301.285156 C 440.804688 301.371094 440.472656 301.4375 440.054688 301.488281 C 439.644531 301.539063 439.128906 301.5625 438.503906 301.5625 C 437.882813 301.5625 437.367188 301.539063 436.949219 301.488281 C 436.539063 301.4375 436.207031 301.371094 435.964844 301.285156 C 435.714844 301.210938 435.539063 301.105469 435.4375 300.96875 C 435.328125 300.84375 435.28125 300.695313 435.28125 300.535156 L 435.28125 275.035156 L 427.351563 275.035156 C 427.195313 275.035156 427.050781 274.984375 426.945313 274.882813 C 426.828125 274.792969 426.726563 274.632813 426.644531 274.433594 C 426.566406 274.234375 426.5 273.957031 426.460938 273.625 C 426.425781 273.289063 426.402344 272.890625 426.402344 272.414063 C 426.402344 271.929688 426.425781 271.511719 426.460938 271.171875 C 426.5 270.828125 426.566406 270.554688 426.644531 270.351563 C 426.726563 270.144531 426.828125 270.003906 426.945313 269.910156 C 427.050781 269.820313 427.195313 269.777344 427.351563 269.777344 L 449.648438 269.777344 C 449.800781 269.777344 449.933594 269.820313 450.058594 269.910156 C 450.175781 270.003906 450.277344 270.144531 450.359375 270.351563 C 450.441406 270.554688 450.503906 270.828125 450.542969 271.171875 C 450.585938 271.511719 450.609375 271.929688 450.609375 272.414063 Z M 480.167969 289.628906 C 480.167969 291.566406 479.882813 293.300781 479.308594 294.835938 C 478.742188 296.363281 477.898438 297.664063 476.796875 298.726563 C 475.6875 299.785156 474.316406 300.585938 472.683594 301.144531 C 471.054688 301.695313 469.175781 301.972656 467.066406 301.972656 C 465.070313 301.972656 463.285156 301.730469 461.710938 301.230469 C 460.121094 300.730469 458.789063 299.976563 457.695313 298.96875 C 456.609375 297.957031 455.773438 296.699219 455.191406 295.1875 C 454.613281 293.683594 454.324219 291.914063 454.324219 289.894531 L 454.324219 270.652344 C 454.324219 270.496094 454.371094 270.34375 454.472656 270.21875 C 454.566406 270.085938 454.742188 269.976563 455 269.902344 C 455.25 269.820313 455.582031 269.753906 455.984375 269.703125 C 456.394531 269.652344 456.917969 269.628906 457.554688 269.628906 C 458.171875 269.628906 458.6875 269.652344 459.089844 269.703125 C 459.496094 269.753906 459.820313 269.820313 460.074219 269.902344 C 460.316406 269.976563 460.492188 270.085938 460.597656 270.21875 C 460.699219 270.34375 460.757813 270.496094 460.757813 270.652344 L 460.757813 289.339844 C 460.757813 290.589844 460.90625 291.675781 461.214844 292.601563 C 461.523438 293.519531 461.976563 294.285156 462.550781 294.886719 C 463.128906 295.488281 463.820313 295.9375 464.628906 296.238281 C 465.4375 296.539063 466.339844 296.699219 467.332031 296.699219 C 468.34375 296.699219 469.242188 296.539063 470.046875 296.230469 C 470.847656 295.921875 471.523438 295.472656 472.074219 294.871094 C 472.632813 294.277344 473.058594 293.542969 473.359375 292.675781 C 473.660156 291.800781 473.808594 290.804688 473.808594 289.703125 L 473.808594 270.652344 C 473.808594 270.496094 473.859375 270.34375 473.960938 270.21875 C 474.050781 270.085938 474.226563 269.976563 474.46875 269.902344 C 474.71875 269.820313 475.042969 269.753906 475.460938 269.703125 C 475.878906 269.652344 476.394531 269.628906 477.011719 269.628906 C 477.632813 269.628906 478.140625 269.652344 478.539063 269.703125 C 478.941406 269.753906 479.257813 269.820313 479.507813 269.902344 C 479.75 269.976563 479.925781 270.085938 480.019531 270.21875 C 480.117188 270.34375 480.167969 270.496094 480.167969 270.652344 Z M 508.089844 272.414063 C 508.089844 272.890625 508.0625 273.289063 508.023438 273.625 C 507.980469 273.957031 507.921875 274.234375 507.839844 274.433594 C 507.757813 274.632813 507.65625 274.792969 507.539063 274.882813 C 507.414063 274.984375 507.28125 275.035156 507.128906 275.035156 L 499.210938 275.035156 L 499.210938 300.535156 C 499.210938 300.695313 499.160156 300.84375 499.050781 300.96875 C 498.941406 301.105469 498.769531 301.210938 498.527344 301.285156 C 498.285156 301.371094 497.949219 301.4375 497.53125 301.488281 C 497.125 301.539063 496.605469 301.5625 495.980469 301.5625 C 495.363281 301.5625 494.847656 301.539063 494.429688 301.488281 C 494.019531 301.4375 493.6875 301.371094 493.445313 301.285156 C 493.195313 301.210938 493.019531 301.105469 492.917969 300.96875 C 492.808594 300.84375 492.761719 300.695313 492.761719 300.535156 L 492.761719 275.035156 L 484.832031 275.035156 C 484.675781 275.035156 484.53125 274.984375 484.421875 274.882813 C 484.304688 274.792969 484.207031 274.632813 484.121094 274.433594 C 484.046875 274.234375 483.980469 273.957031 483.9375 273.625 C 483.90625 273.289063 483.882813 272.890625 483.882813 272.414063 C 483.882813 271.929688 483.90625 271.511719 483.9375 271.171875 C 483.980469 270.828125 484.046875 270.554688 484.121094 270.351563 C 484.207031 270.144531 484.304688 270.003906 484.421875 269.910156 C 484.53125 269.820313 484.675781 269.777344 484.832031 269.777344 L 507.128906 269.777344 C 507.28125 269.777344 507.414063 269.820313 507.539063 269.910156 C 507.65625 270.003906 507.757813 270.144531 507.839844 270.351563 C 507.921875 270.554688 507.980469 270.828125 508.023438 271.171875 C 508.0625 271.511719 508.089844 271.929688 508.089844 272.414063 Z M 538.941406 285.230469 C 538.941406 287.851563 538.617188 290.195313 537.964844 292.265625 C 537.3125 294.335938 536.347656 296.097656 535.050781 297.539063 C 533.765625 298.976563 532.171875 300.078125 530.277344 300.835938 C 528.375 301.597656 526.179688 301.972656 523.6875 301.972656 C 521.222656 301.972656 519.078125 301.65625 517.242188 301.011719 C 515.40625 300.371094 513.882813 299.386719 512.664063 298.066406 C 511.4375 296.738281 510.519531 295.0625 509.910156 293.027344 C 509.300781 290.988281 508.992188 288.578125 508.992188 285.789063 C 508.992188 283.230469 509.316406 280.925781 509.976563 278.882813 C 510.625 276.835938 511.59375 275.101563 512.878906 273.664063 C 514.164063 272.230469 515.757813 271.128906 517.660156 270.359375 C 519.554688 269.59375 521.765625 269.21875 524.269531 269.21875 C 526.675781 269.21875 528.785156 269.535156 530.621094 270.171875 C 532.449219 270.804688 533.984375 271.78125 535.210938 273.097656 C 536.445313 274.425781 537.371094 276.085938 537.996094 278.105469 C 538.632813 280.117188 538.941406 282.484375 538.941406 285.230469 Z M 532.199219 285.574219 C 532.199219 283.90625 532.0625 282.394531 531.804688 281.035156 C 531.546875 279.675781 531.097656 278.507813 530.472656 277.539063 C 529.84375 276.570313 529.011719 275.820313 527.96875 275.292969 C 526.925781 274.757813 525.621094 274.492188 524.054688 274.492188 C 522.476563 274.492188 521.148438 274.792969 520.089844 275.386719 C 519.039063 275.984375 518.179688 276.777344 517.527344 277.769531 C 516.878906 278.765625 516.417969 279.925781 516.144531 281.253906 C 515.875 282.585938 515.742188 283.988281 515.742188 285.472656 C 515.742188 287.203125 515.875 288.753906 516.132813 290.128906 C 516.394531 291.507813 516.835938 292.683594 517.453125 293.660156 C 518.070313 294.636719 518.90625 295.386719 519.949219 295.898438 C 520.992188 296.414063 522.300781 296.671875 523.886719 296.671875 C 525.464844 296.671875 526.78125 296.371094 527.84375 295.789063 C 528.902344 295.203125 529.761719 294.402344 530.414063 293.394531 C 531.0625 292.382813 531.523438 291.207031 531.789063 289.863281 C 532.0625 288.519531 532.199219 287.085938 532.199219 285.574219 Z M 573.414063 272.414063 C 573.414063 272.90625 573.394531 273.316406 573.355469 273.648438 C 573.3125 273.984375 573.246094 274.25 573.15625 274.449219 C 573.070313 274.640625 572.964844 274.792969 572.855469 274.882813 C 572.738281 274.984375 572.605469 275.035156 572.460938 275.035156 L 562.121094 275.035156 L 562.121094 283.539063 L 571.828125 283.539063 C 571.96875 283.539063 572.101563 283.578125 572.210938 283.664063 C 572.328125 283.746094 572.429688 283.878906 572.519531 284.078125 C 572.613281 284.273438 572.679688 284.539063 572.722656 284.863281 C 572.753906 285.191406 572.777344 285.589844 572.777344 286.085938 C 572.777344 286.574219 572.753906 286.976563 572.722656 287.308594 C 572.679688 287.636719 572.613281 287.902344 572.519531 288.109375 C 572.429688 288.328125 572.328125 288.480469 572.210938 288.5625 C 572.101563 288.652344 571.96875 288.703125 571.828125 288.703125 L 562.121094 288.703125 L 562.121094 300.484375 C 562.121094 300.660156 562.070313 300.820313 561.972656 300.945313 C 561.871094 301.078125 561.695313 301.1875 561.445313 301.277344 C 561.195313 301.371094 560.863281 301.4375 560.453125 301.488281 C 560.046875 301.539063 559.527344 301.5625 558.894531 301.5625 C 558.277344 301.5625 557.757813 301.539063 557.339844 301.488281 C 556.925781 301.4375 556.589844 301.371094 556.347656 301.277344 C 556.105469 301.1875 555.929688 301.078125 555.820313 300.945313 C 555.714844 300.820313 555.664063 300.660156 555.664063 300.484375 L 555.664063 271.804688 C 555.664063 271.085938 555.847656 270.570313 556.214844 270.253906 C 556.582031 269.9375 557.03125 269.777344 557.574219 269.777344 L 572.460938 269.777344 C 572.605469 269.777344 572.738281 269.820313 572.855469 269.910156 C 572.964844 270.003906 573.070313 270.144531 573.15625 270.351563 C 573.246094 270.554688 573.3125 270.828125 573.355469 271.171875 C 573.394531 271.511719 573.414063 271.929688 573.414063 272.414063 Z M 597.398438 298.890625 C 597.398438 299.367188 597.378906 299.761719 597.339844 300.078125 C 597.296875 300.394531 597.238281 300.652344 597.152344 300.855469 C 597.070313 301.046875 596.972656 301.1875 596.847656 301.277344 C 596.730469 301.371094 596.585938 301.410156 596.445313 301.410156 L 580.558594 301.410156 C 580.015625 301.410156 579.5625 301.253906 579.195313 300.9375 C 578.828125 300.621094 578.644531 300.101563 578.644531 299.386719 L 578.644531 271.804688 C 578.644531 271.085938 578.828125 270.570313 579.195313 270.253906 C 579.5625 269.9375 580.015625 269.777344 580.558594 269.777344 L 596.34375 269.777344 C 596.496094 269.777344 596.621094 269.820313 596.738281 269.902344 C 596.855469 269.976563 596.945313 270.121094 597.03125 270.328125 C 597.113281 270.527344 597.171875 270.796875 597.214844 271.113281 C 597.253906 271.429688 597.28125 271.828125 597.28125 272.320313 C 597.28125 272.773438 597.253906 273.164063 597.214844 273.480469 C 597.171875 273.800781 597.113281 274.058594 597.03125 274.25 C 596.945313 274.449219 596.855469 274.59375 596.738281 274.675781 C 596.621094 274.765625 596.496094 274.808594 596.34375 274.808594 L 585.054688 274.808594 L 585.054688 282.535156 L 594.609375 282.535156 C 594.757813 282.535156 594.894531 282.585938 595.019531 282.671875 C 595.136719 282.761719 595.234375 282.902344 595.320313 283.085938 C 595.402344 283.277344 595.460938 283.53125 595.503906 283.847656 C 595.542969 284.164063 595.5625 284.546875 595.5625 285.007813 C 595.5625 285.480469 595.542969 285.875 595.503906 286.183594 C 595.460938 286.492188 595.402344 286.742188 595.320313 286.925781 C 595.234375 287.117188 595.136719 287.253906 595.019531 287.328125 C 594.894531 287.410156 594.757813 287.453125 594.609375 287.453125 L 585.054688 287.453125 L 585.054688 296.371094 L 596.445313 296.371094 C 596.585938 296.371094 596.730469 296.421875 596.847656 296.515625 C 596.972656 296.597656 597.070313 296.738281 597.152344 296.9375 C 597.238281 297.132813 597.296875 297.390625 597.339844 297.707031 C 597.378906 298.023438 597.398438 298.425781 597.398438 298.890625 Z M 629.359375 285.132813 C 629.359375 288.027344 628.972656 290.515625 628.214844 292.574219 C 627.453125 294.636719 626.371094 296.320313 624.953125 297.625 C 623.53125 298.925781 621.8125 299.886719 619.785156 300.496094 C 617.75 301.105469 615.339844 301.410156 612.535156 301.410156 L 604.980469 301.410156 C 604.441406 301.410156 603.988281 301.253906 603.621094 300.9375 C 603.253906 300.621094 603.070313 300.101563 603.070313 299.386719 L 603.070313 271.804688 C 603.070313 271.085938 603.253906 270.570313 603.621094 270.253906 C 603.988281 269.9375 604.441406 269.777344 604.980469 269.777344 L 613.09375 269.777344 C 615.914063 269.777344 618.308594 270.109375 620.269531 270.769531 C 622.230469 271.429688 623.890625 272.40625 625.234375 273.699219 C 626.578125 274.992188 627.605469 276.59375 628.304688 278.507813 C 629.007813 280.410156 629.359375 282.621094 629.359375 285.132813 Z M 622.707031 285.347656 C 622.707031 283.847656 622.53125 282.460938 622.179688 281.167969 C 621.832031 279.882813 621.261719 278.765625 620.488281 277.820313 C 619.71875 276.878906 618.726563 276.136719 617.507813 275.609375 C 616.296875 275.074219 614.703125 274.808594 612.726563 274.808594 L 609.480469 274.808594 L 609.480469 296.328125 L 612.828125 296.328125 C 614.589844 296.328125 616.074219 296.097656 617.273438 295.644531 C 618.484375 295.1875 619.484375 294.496094 620.296875 293.578125 C 621.105469 292.660156 621.703125 291.507813 622.105469 290.140625 C 622.507813 288.769531 622.707031 287.175781 622.707031 285.347656 Z M 653.382813 298.890625 C 653.382813 299.367188 653.367188 299.761719 653.324219 300.078125 C 653.28125 300.394531 653.222656 300.652344 653.140625 300.855469 C 653.058594 301.046875 652.957031 301.1875 652.832031 301.277344 C 652.714844 301.371094 652.574219 301.410156 652.429688 301.410156 L 636.542969 301.410156 C 636 301.410156 635.550781 301.253906 635.183594 300.9375 C 634.816406 300.621094 634.632813 300.101563 634.632813 299.386719 L 634.632813 271.804688 C 634.632813 271.085938 634.816406 270.570313 635.183594 270.253906 C 635.550781 269.9375 636 269.777344 636.542969 269.777344 L 652.332031 269.777344 C 652.480469 269.777344 652.605469 269.820313 652.722656 269.902344 C 652.839844 269.976563 652.933594 270.121094 653.015625 270.328125 C 653.097656 270.527344 653.15625 270.796875 653.199219 271.113281 C 653.242188 271.429688 653.265625 271.828125 653.265625 272.320313 C 653.265625 272.773438 653.242188 273.164063 653.199219 273.480469 C 653.15625 273.800781 653.097656 274.058594 653.015625 274.25 C 652.933594 274.449219 652.839844 274.59375 652.722656 274.675781 C 652.605469 274.765625 652.480469 274.808594 652.332031 274.808594 L 641.039063 274.808594 L 641.039063 282.535156 L 650.597656 282.535156 C 650.746094 282.535156 650.878906 282.585938 651.003906 282.671875 C 651.121094 282.761719 651.222656 282.902344 651.304688 283.085938 C 651.386719 283.277344 651.445313 283.53125 651.488281 283.847656 C 651.53125 284.164063 651.546875 284.546875 651.546875 285.007813 C 651.546875 285.480469 651.53125 285.875 651.488281 286.183594 C 651.445313 286.492188 651.386719 286.742188 651.304688 286.925781 C 651.222656 287.117188 651.121094 287.253906 651.003906 287.328125 C 650.878906 287.410156 650.746094 287.453125 650.597656 287.453125 L 641.039063 287.453125 L 641.039063 296.371094 L 652.429688 296.371094 C 652.574219 296.371094 652.714844 296.421875 652.832031 296.515625 C 652.957031 296.597656 653.058594 296.738281 653.140625 296.9375 C 653.222656 297.132813 653.28125 297.390625 653.324219 297.707031 C 653.367188 298.023438 653.382813 298.425781 653.382813 298.890625 Z M 682.53125 300.578125 C 682.53125 300.761719 682.496094 300.910156 682.433594 301.035156 C 682.363281 301.152344 682.214844 301.253906 681.964844 301.339844 C 681.722656 301.421875 681.363281 301.480469 680.886719 301.511719 C 680.421875 301.546875 679.777344 301.5625 678.960938 301.5625 C 678.277344 301.5625 677.726563 301.546875 677.324219 301.511719 C 676.914063 301.480469 676.589844 301.410156 676.355469 301.328125 C 676.121094 301.238281 675.957031 301.121094 675.855469 300.988281 C 675.753906 300.84375 675.671875 300.679688 675.605469 300.484375 L 672.777344 293.417969 C 672.433594 292.617188 672.101563 291.90625 671.773438 291.289063 C 671.441406 290.671875 671.082031 290.15625 670.683594 289.738281 C 670.28125 289.320313 669.820313 289.011719 669.304688 288.796875 C 668.777344 288.585938 668.179688 288.480469 667.492188 288.480469 L 665.492188 288.480469 L 665.492188 300.535156 C 665.492188 300.695313 665.433594 300.84375 665.332031 300.96875 C 665.222656 301.105469 665.050781 301.210938 664.808594 301.285156 C 664.558594 301.371094 664.230469 301.4375 663.820313 301.488281 C 663.421875 301.539063 662.894531 301.5625 662.261719 301.5625 C 661.644531 301.5625 661.128906 301.539063 660.710938 301.488281 C 660.292969 301.4375 659.960938 301.371094 659.71875 301.285156 C 659.476563 301.210938 659.300781 301.105469 659.207031 300.96875 C 659.105469 300.84375 659.058594 300.695313 659.058594 300.535156 L 659.058594 271.804688 C 659.058594 271.085938 659.242188 270.570313 659.609375 270.253906 C 659.976563 269.9375 660.425781 269.777344 660.96875 269.777344 L 669.15625 269.777344 C 669.988281 269.777344 670.675781 269.792969 671.207031 269.828125 C 671.75 269.859375 672.234375 269.902344 672.675781 269.945313 C 673.945313 270.128906 675.089844 270.4375 676.113281 270.878906 C 677.132813 271.320313 677.992188 271.886719 678.699219 272.597656 C 679.410156 273.308594 679.953125 274.148438 680.328125 275.117188 C 680.703125 276.085938 680.886719 277.203125 680.886719 278.457031 C 680.886719 279.515625 680.753906 280.484375 680.488281 281.351563 C 680.21875 282.226563 679.820313 283.003906 679.300781 283.6875 C 678.777344 284.371094 678.132813 284.964844 677.367188 285.472656 C 676.605469 285.976563 675.730469 286.382813 674.753906 286.691406 C 675.230469 286.925781 675.671875 287.203125 676.089844 287.527344 C 676.496094 287.851563 676.890625 288.246094 677.257813 288.710938 C 677.625 289.179688 677.976563 289.703125 678.300781 290.296875 C 678.625 290.898438 678.941406 291.566406 679.253906 292.316406 L 681.914063 298.550781 C 682.164063 299.167969 682.324219 299.628906 682.40625 299.910156 C 682.488281 300.195313 682.53125 300.421875 682.53125 300.578125 Z M 674.238281 279.113281 C 674.238281 278.070313 674.003906 277.195313 673.527344 276.476563 C 673.058594 275.761719 672.285156 275.253906 671.207031 274.960938 C 670.882813 274.875 670.515625 274.808594 670.097656 274.765625 C 669.679688 274.71875 669.105469 274.691406 668.371094 274.691406 L 665.492188 274.691406 L 665.492188 283.664063 L 668.761719 283.664063 C 669.679688 283.664063 670.472656 283.554688 671.15625 283.328125 C 671.84375 283.113281 672.417969 282.804688 672.867188 282.402344 C 673.328125 282.003906 673.667969 281.527344 673.894531 280.976563 C 674.128906 280.417969 674.238281 279.800781 674.238281 279.113281 Z M 713.164063 299.019531 C 713.359375 299.601563 713.480469 300.070313 713.53125 300.410156 C 713.574219 300.753906 713.515625 301.011719 713.332031 301.179688 C 713.15625 301.355469 712.839844 301.453125 712.382813 301.496094 C 711.921875 301.539063 711.296875 301.5625 710.496094 301.5625 C 709.671875 301.5625 709.019531 301.546875 708.550781 301.519531 C 708.09375 301.496094 707.734375 301.445313 707.492188 301.378906 C 707.25 301.304688 707.074219 301.203125 706.972656 301.070313 C 706.882813 300.9375 706.796875 300.769531 706.730469 300.554688 L 704.605469 294.203125 L 692.722656 294.203125 L 690.71875 300.386719 C 690.652344 300.613281 690.566406 300.804688 690.460938 300.960938 C 690.359375 301.113281 690.183594 301.238281 689.949219 301.328125 C 689.714844 301.410156 689.375 301.480469 688.949219 301.511719 C 688.515625 301.546875 687.949219 301.5625 687.246094 301.5625 C 686.496094 301.5625 685.910156 301.539063 685.484375 301.488281 C 685.058594 301.4375 684.769531 301.320313 684.609375 301.128906 C 684.441406 300.945313 684.382813 300.679688 684.433594 300.335938 C 684.484375 299.992188 684.609375 299.535156 684.800781 298.96875 L 694.558594 270.902344 C 694.65625 270.628906 694.765625 270.402344 694.898438 270.226563 C 695.03125 270.0625 695.242188 269.925781 695.523438 269.835938 C 695.808594 269.753906 696.199219 269.691406 696.710938 269.667969 C 697.210938 269.644531 697.886719 269.628906 698.714844 269.628906 C 699.671875 269.628906 700.441406 269.644531 701.015625 269.667969 C 701.582031 269.691406 702.023438 269.753906 702.34375 269.835938 C 702.660156 269.925781 702.894531 270.0625 703.027344 270.242188 C 703.167969 270.421875 703.285156 270.660156 703.386719 270.980469 Z M 698.636719 275.820313 L 698.613281 275.820313 L 694.140625 289.261719 L 703.109375 289.261719 Z M 734.972656 298.726563 C 734.972656 299.210938 734.953125 299.628906 734.910156 299.960938 C 734.871094 300.296875 734.8125 300.570313 734.730469 300.785156 C 734.644531 301.011719 734.546875 301.171875 734.421875 301.261719 C 734.304688 301.363281 734.152344 301.410156 733.996094 301.410156 L 719.5 301.410156 C 718.957031 301.410156 718.507813 301.253906 718.140625 300.9375 C 717.773438 300.621094 717.589844 300.101563 717.589844 299.386719 L 717.589844 270.652344 C 717.589844 270.496094 717.636719 270.34375 717.746094 270.21875 C 717.855469 270.085938 718.03125 269.976563 718.273438 269.902344 C 718.515625 269.820313 718.847656 269.753906 719.265625 269.703125 C 719.683594 269.652344 720.199219 269.628906 720.816406 269.628906 C 721.453125 269.628906 721.96875 269.652344 722.378906 269.703125 C 722.785156 269.753906 723.113281 269.820313 723.355469 269.902344 C 723.605469 269.976563 723.78125 270.085938 723.878906 270.21875 C 723.988281 270.34375 724.046875 270.496094 724.046875 270.652344 L 724.046875 296.105469 L 733.996094 296.105469 C 734.152344 296.105469 734.304688 296.15625 734.421875 296.238281 C 734.546875 296.328125 734.644531 296.480469 734.730469 296.679688 C 734.8125 296.890625 734.871094 297.15625 734.910156 297.492188 C 734.953125 297.824219 734.972656 298.234375 734.972656 298.726563 "/>
<path style=" stroke:none;fill-rule:nonzero;fill:rgb(65.098572%,80.799866%,21.998596%);fill-opacity:1;" d="M 345.078125 347.746094 L 339.835938 347.746094 L 337.746094 339.800781 L 328.214844 339.800781 L 326.246094 347.746094 L 321.121094 347.746094 L 330.417969 312.792969 L 335.523438 312.792969 Z M 466.863281 336.378906 L 471.570313 335.703125 C 472.097656 340.167969 473.835938 342.40625 476.777344 342.40625 C 478.226563 342.40625 479.371094 341.949219 480.207031 341.03125 C 481.046875 340.121094 481.460938 338.988281 481.460938 337.636719 C 481.460938 336.839844 481.320313 336.164063 481.027344 335.609375 C 480.734375 335.050781 480.289063 334.59375 479.691406 334.238281 C 479.09375 333.878906 477.65625 333.285156 475.367188 332.4375 C 473.3125 331.691406 471.804688 330.882813 470.855469 330.003906 C 469.902344 329.132813 469.140625 327.988281 468.578125 326.5625 C 468.015625 325.140625 467.738281 323.609375 467.738281 321.972656 C 467.738281 320.070313 468.097656 318.351563 468.816406 316.824219 C 469.542969 315.300781 470.539063 314.144531 471.804688 313.363281 C 473.082031 312.589844 474.648438 312.199219 476.519531 312.199219 C 479.324219 312.199219 481.515625 313.113281 483.089844 314.941406 C 484.667969 316.765625 485.503906 319.386719 485.589844 322.785156 L 480.769531 323.097656 C 480.554688 321.21875 480.097656 319.90625 479.394531 319.15625 C 478.695313 318.417969 477.691406 318.042969 476.394531 318.042969 C 475.101563 318.042969 474.097656 318.367188 473.398438 319.019531 C 472.695313 319.671875 472.34375 320.476563 472.34375 321.453125 C 472.34375 322.40625 472.660156 323.203125 473.296875 323.851563 C 473.9375 324.511719 475.398438 325.21875 477.683594 326 C 480.113281 326.847656 481.859375 327.734375 482.9375 328.664063 C 484.019531 329.589844 484.84375 330.792969 485.414063 332.257813 C 485.984375 333.730469 486.269531 335.515625 486.269531 337.613281 C 486.269531 340.648438 485.488281 343.195313 483.9375 345.261719 C 482.378906 347.328125 479.941406 348.363281 476.632813 348.363281 C 470.78125 348.363281 467.523438 344.367188 466.863281 336.378906 Z M 465.527344 347.746094 L 460.289063 347.746094 L 458.199219 339.800781 L 448.667969 339.800781 L 446.699219 347.746094 L 441.574219 347.746094 L 450.871094 312.792969 L 455.976563 312.792969 Z M 456.652344 333.917969 L 453.371094 320.949219 L 450.136719 333.917969 Z M 417.085938 330.484375 C 417.085938 326.320313 417.59375 322.894531 418.625 320.199219 C 419.648438 317.507813 420.992188 315.496094 422.644531 314.179688 C 424.300781 312.859375 426.308594 312.199219 428.664063 312.199219 C 432.082031 312.199219 434.863281 313.761719 437.019531 316.894531 C 439.167969 320.027344 440.246094 324.488281 440.246094 330.273438 C 440.246094 336.117188 439.105469 340.691406 436.828125 343.976563 C 434.828125 346.890625 432.117188 348.339844 428.6875 348.339844 C 425.230469 348.339844 422.503906 346.898438 420.503906 344.027344 C 418.226563 340.738281 417.085938 336.222656 417.085938 330.484375 Z M 422.050781 330.25 C 422.050781 334.269531 422.6875 337.28125 423.953125 339.289063 C 425.230469 341.300781 426.800781 342.308594 428.6875 342.308594 C 430.578125 342.308594 432.144531 341.308594 433.390625 339.316406 C 434.640625 337.320313 435.257813 334.261719 435.257813 330.128906 C 435.257813 326.074219 434.652344 323.082031 433.4375 321.136719 C 432.234375 319.199219 430.644531 318.230469 428.6875 318.230469 C 426.726563 318.230469 425.128906 319.207031 423.898438 321.160156 C 422.664063 323.121094 422.050781 326.148438 422.050781 330.25 Z M 401.785156 334.894531 L 401.785156 329.003906 L 412.171875 329.003906 L 412.171875 342.925781 C 411.128906 344.40625 409.644531 345.675781 407.722656 346.742188 C 405.804688 347.808594 403.878906 348.339844 401.941406 348.339844 C 399.589844 348.339844 397.507813 347.648438 395.710938 346.253906 C 393.90625 344.863281 392.476563 342.78125 391.425781 340.007813 C 390.375 337.230469 389.847656 333.976563 389.847656 330.226563 C 389.847656 326.375 390.382813 323.089844 391.445313 320.355469 C 392.511719 317.621094 393.894531 315.578125 395.59375 314.226563 C 397.296875 312.875 399.335938 312.199219 401.703125 312.199219 C 404.550781 312.199219 406.835938 313.070313 408.550781 314.8125 C 410.265625 316.554688 411.363281 319.101563 411.851563 322.476563 L 407.085938 323.789063 C 406.734375 321.988281 406.074219 320.613281 405.121094 319.664063 C 404.171875 318.710938 403.03125 318.230469 401.703125 318.230469 C 399.65625 318.230469 397.988281 319.191406 396.71875 321.101563 C 395.445313 323.015625 394.816406 325.9375 394.816406 329.867188 C 394.816406 334.074219 395.5 337.28125 396.878906 339.46875 C 398.054688 341.363281 399.65625 342.308594 401.664063 342.308594 C 402.605469 342.308594 403.582031 342.039063 404.597656 341.511719 C 405.609375 340.972656 406.511719 340.25 407.3125 339.332031 L 407.3125 334.894531 Z M 387.652344 347.746094 L 382.179688 347.746094 L 379.996094 339.800781 L 370.039063 339.800781 L 367.984375 347.746094 L 347.761719 347.746094 L 347.761719 313.078125 L 352.566406 313.078125 L 352.566406 341.851563 L 364.265625 341.851563 L 372.339844 312.792969 L 377.675781 312.792969 Z M 378.382813 333.917969 L 374.953125 320.949219 L 371.574219 333.917969 Z M 336.199219 333.917969 L 332.921875 320.949219 L 329.6875 333.917969 L 336.199219 333.917969 "/>
</g>
</svg>
